<?xml version="1.0" standalone="no"?>
<!DOCTYPE svg PUBLIC "-//W3C//DTD SVG 20010904//EN"
 "http://www.w3.org/TR/2001/REC-SVG-20010904/DTD/svg10.dtd">
<svg version="1.0" xmlns="http://www.w3.org/2000/svg"
 width="467.000000pt" height="467.000000pt" viewBox="0 0 467.000000 467.000000"
 preserveAspectRatio="xMidYMid meet">
<metadata>
Created by potrace 1.14, written by Peter Selinger 2001-2017
</metadata>
<g transform="translate(0.000000,467.000000) scale(0.100000,-0.100000)"
fill="#000000" stroke="none">
<path d="M1669 4414 c-26 -7 -51 -20 -57 -27 -6 -7 -17 -48 -25 -92 -12 -70
-21 -92 -75 -173 -33 -52 -63 -106 -66 -120 -5 -27 -29 -172 -66 -407 -11 -71
-36 -224 -55 -340 -49 -298 -129 -787 -165 -1010 -114 -704 -147 -909 -170
-1047 -30 -176 -28 -200 20 -252 22 -24 72 -60 110 -80 62 -33 71 -41 82 -77
7 -25 24 -50 43 -65 125 -95 551 -208 1025 -271 98 -13 202 -18 375 -18 270 0
298 6 335 68 18 31 26 35 74 40 88 9 164 37 196 73 32 37 35 51 84 354 19 118
53 325 75 460 22 135 51 315 65 400 14 85 46 281 71 435 25 154 52 323 61 375
8 52 21 133 29 180 8 47 33 198 55 335 23 138 50 304 60 370 l20 120 -28 116
c-27 109 -28 119 -16 189 17 101 9 115 -92 164 -83 40 -218 84 -382 127 -91
23 -167 48 -185 61 -27 19 -43 23 -102 21 -38 -1 -119 7 -180 17 -357 62 -630
90 -877 89 -137 0 -206 -5 -239 -15z m656 -54 c148 -17 547 -77 551 -83 0 -1
-1 -20 -4 -43 l-4 -41 -46 9 c-304 58 -650 98 -895 103 -160 4 -215 9 -238 20
-16 9 -29 20 -29 25 0 42 322 47 665 10z m-625 -101 c201 -100 714 -220 1190
-278 91 -12 208 -26 260 -33 124 -16 443 -16 493 -1 34 10 38 10 33 -3 -3 -9
-6 -19 -6 -24 0 -4 -21 -14 -47 -21 -61 -18 -439 -17 -598 0 -617 69 -1255
221 -1377 329 -15 13 -26 62 -14 62 2 0 32 -14 66 -31z m1315 17 c19 -8 70
-42 114 -75 121 -92 146 -140 96 -179 -34 -27 -64 -18 -159 48 -145 100 -172
144 -121 195 28 29 26 29 70 11z m-685 -50 c135 -17 407 -60 500 -78 54 -11
78 -23 143 -72 42 -32 77 -60 77 -62 0 -11 -491 62 -690 102 -129 26 -352 82
-430 108 l-75 26 180 -5 c99 -2 232 -11 295 -19z m996 -51 c168 -45 314 -104
343 -139 11 -13 9 -17 -14 -26 -40 -15 -49 -14 -207 37 -101 33 -149 53 -153
65 -3 9 -22 33 -42 53 -19 19 -32 35 -29 35 3 0 49 -11 102 -25z m-1649 -27
c201 -106 780 -234 1352 -298 102 -12 189 -24 194 -27 15 -9 337 -5 385 5 41
9 44 8 53 -15 5 -13 9 -28 9 -34 0 -5 9 -36 21 -69 l21 -60 -42 -258 c-23
-141 -55 -338 -71 -437 -16 -99 -54 -335 -85 -525 -31 -190 -62 -381 -69 -425
-7 -44 -27 -165 -44 -270 -17 -104 -42 -257 -56 -340 -125 -769 -117 -727
-150 -755 -14 -12 -18 -11 -26 1 -7 12 -9 12 -9 -2 0 -25 -215 -67 -236 -46
-10 9 -126 9 -121 0 8 -13 -188 -6 -343 11 -534 60 -1070 180 -1280 286 -79
40 -139 87 -150 116 -10 26 -9 33 66 494 65 398 187 1149 234 1435 16 99 47
290 69 425 22 135 54 335 72 445 l33 200 55 87 c31 48 58 86 61 85 3 -1 28
-14 57 -29z m1718 -138 l50 -18 -65 -1 c-68 -1 -97 9 -86 28 10 15 43 13 101
-9z m-1971 -3259 c246 -72 495 -123 811 -166 99 -14 207 -29 240 -35 33 -5
145 -14 250 -20 104 -6 191 -13 194 -15 2 -3 -9 -10 -25 -17 -19 -8 -100 -14
-234 -16 -164 -3 -239 1 -375 18 -440 54 -887 168 -1001 255 -36 28 -45 51
-16 42 9 -3 79 -24 156 -46z m1459 -168 c-7 -2 -21 -2 -30 0 -10 3 -4 5 12 5
17 0 24 -2 18 -5z"/>
<path d="M3661 3594 c0 -11 3 -14 6 -6 3 7 2 16 -1 19 -3 4 -6 -2 -5 -13z"/>
<path d="M3632 3420 c0 -14 2 -19 5 -12 2 6 2 18 0 25 -3 6 -5 1 -5 -13z"/>
<path d="M3221 3384 c0 -11 3 -14 6 -6 3 7 2 16 -1 19 -3 4 -6 -2 -5 -13z"/>
<path d="M3601 3224 c0 -11 3 -14 6 -6 3 7 2 16 -1 19 -3 4 -6 -2 -5 -13z"/>
<path d="M3191 3214 c0 -11 3 -14 6 -6 3 7 2 16 -1 19 -3 4 -6 -2 -5 -13z"/>
<path d="M3181 3164 c0 -11 3 -14 6 -6 3 7 2 16 -1 19 -3 4 -6 -2 -5 -13z"/>
<path d="M3562 3000 c0 -14 2 -19 5 -12 2 6 2 18 0 25 -3 6 -5 1 -5 -13z"/>
<path d="M3151 2984 c0 -11 3 -14 6 -6 3 7 2 16 -1 19 -3 4 -6 -2 -5 -13z"/>
<path d="M3551 2944 c0 -11 3 -14 6 -6 3 7 2 16 -1 19 -3 4 -6 -2 -5 -13z"/>
<path d="M3532 2820 c0 -14 2 -19 5 -12 2 6 2 18 0 25 -3 6 -5 1 -5 -13z"/>
<path d="M3116 2784 c-4 -14 -5 -28 -3 -31 3 -2 8 8 11 23 4 14 5 28 3 31 -3
2 -8 -8 -11 -23z"/>
<path d="M3521 2763 c-1 -6 -4 -20 -7 -30 -5 -17 -5 -17 6 0 6 10 9 23 6 30
-3 9 -5 9 -5 0z"/>
<path d="M3082 2580 c0 -14 2 -19 5 -12 2 6 2 18 0 25 -3 6 -5 1 -5 -13z"/>
<path d="M3492 2580 c0 -14 2 -19 5 -12 2 6 2 18 0 25 -3 6 -5 1 -5 -13z"/>
<path d="M3461 2394 c0 -11 3 -14 6 -6 3 7 2 16 -1 19 -3 4 -6 -2 -5 -13z"/>
<path d="M3352 1750 c0 -14 2 -19 5 -12 2 6 2 18 0 25 -3 6 -5 1 -5 -13z"/>
<path d="M2931 1734 c0 -11 3 -14 6 -6 3 7 2 16 -1 19 -3 4 -6 -2 -5 -13z"/>
<path d="M3342 1700 c0 -14 2 -19 5 -12 2 6 2 18 0 25 -3 6 -5 1 -5 -13z"/>
<path d="M2911 1594 c0 -11 3 -14 6 -6 3 7 2 16 -1 19 -3 4 -6 -2 -5 -13z"/>
<path d="M3311 1514 c0 -11 3 -14 6 -6 3 7 2 16 -1 19 -3 4 -6 -2 -5 -13z"/>
<path d="M3278 1327 c-3 -19 -2 -25 4 -19 6 6 8 18 6 28 -3 14 -5 12 -10 -9z"/>
<path d="M2831 1154 c0 -11 3 -14 6 -6 3 7 2 16 -1 19 -3 4 -6 -2 -5 -13z"/>
<path d="M3251 1144 c0 -11 3 -14 6 -6 3 7 2 16 -1 19 -3 4 -6 -2 -5 -13z"/>
<path d="M2791 924 c0 -11 3 -14 6 -6 3 7 2 16 -1 19 -3 4 -6 -2 -5 -13z"/>
<path d="M3211 914 c0 -11 3 -14 6 -6 3 7 2 16 -1 19 -3 4 -6 -2 -5 -13z"/>
<path d="M3201 864 c0 -11 3 -14 6 -6 3 7 2 16 -1 19 -3 4 -6 -2 -5 -13z"/>
<path d="M3187 823 c-4 -3 -7 -11 -7 -17 0 -6 5 -5 12 2 6 6 9 14 7 17 -3 3
-9 2 -12 -2z"/>
<path d="M2761 744 c0 -11 3 -14 6 -6 3 7 2 16 -1 19 -3 4 -6 -2 -5 -13z"/>
<path d="M3171 674 c0 -11 3 -14 6 -6 3 7 2 16 -1 19 -3 4 -6 -2 -5 -13z"/>
</g>
</svg>
